<svg width="430" height="129" viewBox="0 0 430 129"  xmlns="http://www.w3.org/2000/svg">


<defs>
              <pattern
                id="grid-pattern"
                width="35.2px"
                height="35.2px"
                patternUnits="userSpaceOnUse"

              >
                <rect
                  width="100%"
                  height="100%"
                  fill="none"
                  strokeWidth="2"
                  stroke={"#939393"}
                />
              </pattern>
            </defs>

<!-- <rect width="430" height="129" fill="#3D434D"/> -->
<rect width="100%" height="100%" fill="url(#grid-pattern)" />
<!-- <circle cx="373" cy="38" r="31" fill="white"/>
<circle cx="384" cy="33" r="19" fill="#C4C4C4"/>
<path d="M56 33L58.2627 38.7373L64 41L58.2627 43.2627L56 49L53.7373 43.2627L48 41L53.7373 38.7373L56 33Z" fill="#C4C4C4"/>
<path d="M107 85L109.263 90.7373L115 93L109.263 95.2627L107 101L104.737 95.2627L99 93L104.737 90.7373L107 85Z" fill="#C4C4C4"/>
<path d="M174 38L176.263 43.7373L182 46L176.263 48.2627L174 54L171.737 48.2627L166 46L171.737 43.7373L174 38Z" fill="#C4C4C4"/>
<path d="M232 85L234.263 90.7373L240 93L234.263 95.2627L232 101L229.737 95.2627L224 93L229.737 90.7373L232 85Z" fill="#C4C4C4"/> -->

</svg>


